# xmcd
#
# Track frame offsets: 
#        150
#        21204
#        41148
#        67502
#        89768
#        114639
#        147439
#        200413
#        222350
#        246169
#
# Disc length: 3625 seconds
#
# Revision: 0
# Processed by: cddbd v1.5.2PL0 Copyright (c) Steve Scherf et al.
# Submitted via: ExactAudioCopy v1.3
#
DISCID=930e270a
DTITLE=Matty T.Wall - Blue Skies
DYEAR=2016
DGENRE=Blues Rock
TTITLE0=Burnin up Burnin Down
TTITLE1=Am I Wrong
TTITLE2=Love Gone Away
TTITLE3=Scorcher
TTITLE4=Blue Skies
TTITLE5=This Is Real
TTITLE6=Voodoo Chile
TTITLE7=Broken Heart Tattoo
TTITLE8=Smile
TTITLE9=Hellhound on My Trail
EXTD=
EXTT0=
EXTT1=
EXTT2=
EXTT3=
EXTT4=
EXTT5=
EXTT6=
EXTT7=
EXTT8=
EXTT9=
PLAYORDER=
